<?xml version="1.0" encoding="UTF-8"?>
<svg id="Camada_9" data-name="Camada 9" xmlns="http://www.w3.org/2000/svg" viewBox="0 0 1080 1350">
  <defs>
    <style>
      .cls-1 {
        fill: #fff;
      }

      .cls-2 {
        fill: #fd7f00;
      }
    </style>
  </defs>
  <g id="CADEIRA">
    <path class="cls-2" d="M889.22,1092.86c-50.67,6.99-37.78-40.36-42.6-74.2-5.87-41.24-30.98-225.09-62.44-243.84-27.36-16.31-82.93,19.62-112.69,23.75l-8.78,207.52c-18.48,15.45-45.53,30.41-68.35,15.13l-11.45-196.38c-26.23,2.92-53.15,3.21-60.37,33.42l-47.65,293.1c-19.75,18.24-52.09,22.4-71.7.62-13.4-14.89-6.33-55.84-7.91-76.32-5.69-73.91-14.83-148.48-19.07-222.13-1.71-29.79,2.74-60.33-1.93-89.91l-27.76,16.24c-20.04,90.11-16.21,186.89-35.33,276.73-8.88,2.13-30.42,10.59-36.77,1.97-4.51-6.13,11.93-132.23,13.66-151.43,6.33-70.18,6.32-132.85,27.62-202.1,2.02-6.58,8.39-11.75,9.76-17,4.3-16.42-7.46-99.24-11.67-120.48-5.54-27.99-17.15-54.51-22.82-82.46-66.34-24.75-152.16-49.71-118.42-141.43,55-149.49,305.17-156.33,408.56-58.74,37.96,35.83,48.95,86.37,96.27,114.3,41.94,24.75,125.08,25.75,150.54,60.04,17.67,23.8,11.73,59.48,15.37,88,17.64,137.97,15.93,276.04,38.21,413.56l7.71,132.06v-.02ZM850.88,790.37c-2.42-50.45-.32-104.97-3.83-155-1.52-21.64-8.53-44.53-10.98-65.59-3.27-28.02-2.02-68.97-8.98-94.4-9.1-33.29-76.34-38.43-105.43-47.71-91.69-29.26-79.11-55.79-131.2-117.66-70.68-83.95-214.21-98.24-312.57-60.12-72.55,28.12-154.61,149.79-57.51,196.65,22.05,10.64,140.13,49.17,146.01,56.91,10.33,13.62,4.56,48.87,6,66.74,9.59,118.83,14.8,237.4,22.89,356.14l7.74,177.97c5.55.76,5.84-10.4,6.53-14.45,17.24-101.82,14.81-217.04,24.09-320.5.54-5.99,1.2-24.47,11.44-21.07l-30.78,399.96,15.47,5.83c5.72-93.19,24.11-184.92,34.46-277.57,3.44-30.78,1.1-70.02,7.9-99.3,1.54-6.65,4.07-9.66,9.41-13.58l-44.07,390.45c9.87-.76,26.31.2,28.91-11.12l37.14-253.96c8.8-31.28,9.4-59.61,44.79-70.06,43.89-12.96,90-21.56,134.15-34.31,30.37-8.77,78.11-37.65,107.07-18.97,17.98,11.59,36.62,77.48,41.98,99.68,16.79,69.5,20.1,142.3,32.76,212.27l17.35,1.79c-12.27-66.38-8.83-135.44-20.24-201.82-6.1-35.5-19.84-67.95-27.87-102.3-5.42-23.21-2.73-79.54-28.44-86.72-14.91-4.17-34.53,11.66-48.84,16.71-71.55,25.26-198.56,64.65-271.05,43.15-7.29-2.16-35.99-13.36-39.96-17.47-15.5-16.08-23.98-178.97-32.52-216.33-13.58-59.36-33.64-40.32-83.29-54.54-26.01-7.45-83.35-25.69-100.79-44.7-13.14-14.32-16.54-36.78-13.03-55.51,1.82-9.73,26.35-43.5,36.08-32.62,4.03,4.5,21.48,37.21,24.49,44.43,5.65,13.59,13.09,56.95,17.8,62.6,4.29,5.15,7.27,4.3,13.32,3.87l-42.02-120.82c.34-11.11,24.17-16.06,33.22-20.19,10.64-.6,20.29,38.35,22.99,48.37,9.13,33.81,15.86,73.46,20.28,108.02l11.45-.05-30.81-162.48,42.59-4.3,22.63,171.9,11.55,2.51-22.5-173.87c2.11-8.97,35.83-8.41,39.97-2.45,3.26,38.84,3.17,78.09,5.54,116.98,1.59,26.09,13.06,75.67,7.53,98.86-.65,2.71-11.14,1.18-7.76,19.71l15.68,3.73c3.86,14.68,19.69,89.51,13.41,98.18l-13.88,5.82,3.68,26.1c9.96,13.93,72.88-20.99,85.77-25.41,7.28-2.49,8.29-5.29,14.13,2.76-.52,7.69-85.14,39.33-99.48,36.38-12.2,27.31,56.66,50.26,57.37,59.33.65,8.32-9.06,2.91-12.68,1.31-11.64-5.13-24.89-14.56-35.12-22.35-9.34,16.67,14.62,24.94,27.68,29.75,71.71,26.37,198.35-14.29,270.05-38.34,12.42-4.17,24.07-13.73,37.05-16.51,54.94-11.75,48.12,43.27,54.87,79.57l10.42,29.73h0ZM422.08,495.59l-11.98-196.64-5.76-5.73-16.66-.53,25.75,190.52,8.65,12.37h0ZM356.66,296.89l-22.61-.37.33,9.18,30.25,149.03,11.52,2.59-19.5-160.42h.01ZM299.55,307.99l-22.63,7.99c-3.07,4.29,15.9,42.51,18.92,51.28,4.71,13.67,19.88,73.52,24.76,78.61,4.27,4.46,7.74,4.29,13.46,3.73l-34.51-141.62h0ZM280.42,434.33c4.16-15.59-25.09-99.35-40.07-95.7-39.18,42.94-3.89,80.48,40.07,95.7ZM321.78,496.44c-1.41-2.05-16.06-7.65-18.4-2.71,22.16,61.1,30.05,125.74,31.43,190.63,3.94,13.11,27.06,10.67,37.5,17.98l.06-22.99h-19.19v-11.45l19.22-1.98-3.91-24.83c-9.38,1.56-13.15,7.72-18.3-2.74-9.91-20.14-4.08-67.46-12.67-91.09l2.59-6.15,24.57-3.44-3.85-26.76-7.57,1.84.04,15.42-22.93,5.55c-1.7-1.49-6.13-33.67-8.62-37.29h.03ZM425.99,533.87c4.3,10.27,4.09,83.91,13.36,84.15,7.83.21,2.72-11.04,2.44-13.77-1.82-17.69-4.89-39.53-8.22-56.94-1.07-5.58.02-11.88-7.58-13.44ZM368.5,633.4c-2.79-24.94-5.95-53.25-12.64-77.33-1.1-3.94-.94-11.59-6.44-10.69,1.38,24.56,2.91,54.46,7.75,78.33,1.36,6.72,3.61,10.85,11.33,9.69h0ZM371.98,710.34l-43.64-8.28c-10.39,26.77-18.83,55.5-17.21,84.49l63.36-34.52-2.51-41.69h0ZM334.05,786.58c-5.69-5.59-24.09,20.81-26.2,25.45-13.64,30.02-9.16,90.89-12.11,125.71-1.28,15.07-16.29,108.31-11.45,113,7.43-.13,19.53,2.54,22.44-6.29l27.32-257.87ZM659.46,801.89l-23.18,6.03-7.4,204.51,23.12-10.19,7.46-200.35h0ZM617.36,1016.29l7.64-206.76-34.74,13.91c7.21,23.86,5.96,184.25,15.42,191.14l11.68,1.72h0Z"/>
    <path class="cls-1" d="M850.88,790.37l-10.42-29.73c-6.75-36.29.07-91.32-54.87-79.57-12.98,2.78-24.63,12.34-37.05,16.51-71.71,24.05-198.34,64.71-270.05,38.34-13.06-4.8-37.02-13.08-27.68-29.75,10.23,7.79,23.48,17.23,35.12,22.35,3.62,1.59,13.33,7,12.68-1.31-.71-9.07-69.56-32.02-57.37-59.33,14.34,2.94,98.97-28.69,99.48-36.38-5.84-8.05-6.86-5.26-14.13-2.76-12.89,4.42-75.8,39.33-85.77,25.41l-3.68-26.1,13.88-5.82c6.28-8.67-9.55-83.5-13.41-98.18l-15.68-3.73c-3.38-18.53,7.11-17,7.76-19.71,5.53-23.19-5.94-72.77-7.53-98.86-2.37-38.88-2.28-78.14-5.54-116.98-4.14-5.95-37.86-6.52-39.97,2.45l22.5,173.87-11.55-2.51-22.63-171.9-42.59,4.3,30.81,162.48-11.45.05c-4.42-34.56-11.15-74.2-20.28-108.02-2.71-10.02-12.35-48.97-22.99-48.37-9.05,4.13-32.88,9.08-33.22,20.19l42.02,120.82c-6.05.43-9.03,1.28-13.32-3.87-4.71-5.65-12.15-49.01-17.8-62.6-3-7.22-20.46-39.92-24.49-44.43-9.73-10.88-34.26,22.89-36.08,32.62-3.51,18.73-.11,41.19,13.03,55.51,17.44,19.01,74.79,37.24,100.79,44.7,49.64,14.22,69.71-4.82,83.29,54.54,8.55,37.36,17.02,200.26,32.52,216.33,3.97,4.11,32.67,15.31,39.96,17.47,72.49,21.5,199.5-17.89,271.05-43.15,14.31-5.05,33.93-20.88,48.84-16.71,25.71,7.19,23.02,63.51,28.44,86.72,8.03,34.35,21.77,66.8,27.87,102.3,11.41,66.38,7.97,135.44,20.24,201.82l-17.35-1.79c-12.66-69.96-15.97-142.77-32.76-212.27-5.36-22.2-24-88.09-41.98-99.68-28.96-18.67-76.7,10.2-107.07,18.97-44.15,12.75-90.26,21.35-134.15,34.31-35.4,10.45-35.99,38.78-44.79,70.06l-37.14,253.96c-2.6,11.32-19.04,10.36-28.91,11.12l44.07-390.45c-5.34,3.92-7.87,6.93-9.41,13.58-6.79,29.28-4.46,68.53-7.9,99.3-10.34,92.65-28.74,184.38-34.46,277.57l-15.47-5.83,30.78-399.96c-10.23-3.4-10.9,15.09-11.44,21.07-9.28,103.46-6.85,218.68-24.09,320.5-.69,4.05-.98,15.21-6.53,14.45l-7.74-177.97c-8.09-118.73-13.3-237.3-22.89-356.14-1.44-17.87,4.33-53.13-6-66.74-5.87-7.74-123.96-46.27-146.01-56.91-97.1-46.87-15.05-168.53,57.51-196.65,98.36-38.13,241.89-23.84,312.57,60.12,52.09,61.87,39.51,88.4,131.2,117.66,29.09,9.28,96.33,14.42,105.43,47.71,6.95,25.43,5.71,66.38,8.98,94.4,2.46,21.06,9.46,43.95,10.98,65.59,3.51,50.03,1.41,104.54,3.83,155h0ZM467.53,495.04l.54-200.46c-3.13-16.9-28.76-13.41-42.12-13.38l15.32,218.24,26.27-4.4h-.01ZM483.38,491.78c15.48-.74,32.45,1.21,34.67-17.04,5.98-49.11-4.81-110.41-.3-160.94-2.28-11.9-21.23-20.7-32.41-21.26-8.07-.41-4.99.13-5.82,5.75l3.85,193.49h.01ZM546.49,320.2c-7.43.61-15.93,28.91-16.85,35.97-5.78,44.43-5.66,172.14.67,216.91,3.89,27.53,21.94,53.23,51.11,56.27,19.36,2.02,34.42-8.02,53.15-7.71,33.71.56,108.84,34.96,133.64,19.05,17.96-11.52,16.45-105.37,13.87-127.96-.74-6.51-1.76-11.77-5.85-17.12-53.51-31.79-121.09-49.62-162.61-97.74-11.19-12.97-51.4-78.96-67.14-77.68h0ZM495.27,610c7.01,1.26,24.04,2.45,25.95-5.6l-7.76-91.05c-3.15-9.56-27.02-9.26-29.78.03l11.59,96.63h0ZM471.86,514.77l-22.58.33c-1.13,2.9-2.16,6.01-2.24,9.15-.27,10.08,10.64,77.46,14.02,87.46,2.12,6.26,6.5,6.75,12.75,6.74,3.42,0,6.76-.3,9.79-2.04l3.71-7.84-15.46-93.8h0ZM747.53,667.89l-145.45-30.63c-1.57,8.16,3.82,8.9,9.33,11.69,35.61,18.03,91.99,15.03,130.02,30.06l6.1-11.12ZM697.78,687.05l-133.96-42.14c-.25,8.55-2.75,8.43,4.76,12.49,8.86,4.79,30.95,11.6,41.97,15.4,10.56,3.65,77.34,25.79,81.58,25.25,3.3-.42,6.92-7.06,5.66-11h0ZM640.33,717.63l-8.81-12.21c-29.12-8.29-61.79-37.25-88.01-46.03-7.24-2.42-8.23-5.39-14.12,2.75,34.75,22.51,71.92,41.6,110.93,55.49h.01ZM593.89,718.14l-99.01-50.25c-1.4,6.94,3.41,9.5,7.89,13.13,6.35,5.15,79.73,46.19,86.03,48,7.88,2.26,7.3-7.77,5.09-10.88ZM548.44,732.94l-13.3-15.37c-8.68-3.24-71.85-45.21-74.71-42.02-3.99,4.44.82,9.2,4.66,12.64,10.02,8.97,53.46,32.6,67.56,39.53,5.19,2.55,8.6,7.04,15.8,5.22h-.01Z"/>
    <path class="cls-1" d="M334.05,786.58l-27.32,257.87c-2.91,8.83-15.01,6.16-22.44,6.29-4.84-4.69,10.17-97.93,11.45-113,2.95-34.83-1.53-95.7,12.11-125.71,2.11-4.64,20.5-31.04,26.2-25.45Z"/>
    <path class="cls-1" d="M617.36,1016.29l-11.68-1.72c-9.47-6.89-8.21-167.27-15.42-191.14l34.74-13.91-7.64,206.76h0Z"/>
    <path class="cls-1" d="M321.78,496.44c2.49,3.62,6.92,35.79,8.62,37.29l22.93-5.55-.04-15.42,7.57-1.84,3.85,26.76-24.57,3.44-2.59,6.15c8.59,23.63,2.76,70.95,12.67,91.09,5.15,10.46,8.91,4.3,18.3,2.74l3.91,24.83-19.22,1.98v11.45h19.19l-.06,22.99c-10.44-7.3-33.56-4.87-37.5-17.98-1.38-64.89-9.27-129.52-31.43-190.63,2.34-4.94,16.99.66,18.4,2.71h-.03Z"/>
    <polygon class="cls-1" points="659.46 801.89 652 1002.24 628.88 1012.43 636.28 807.91 659.46 801.89"/>
    <path class="cls-1" d="M371.98,710.34l2.51,41.69-63.36,34.52c-1.62-28.99,6.82-57.72,17.21-84.49l43.64,8.28h0Z"/>
    <polygon class="cls-1" points="356.66 296.89 376.16 457.32 364.64 454.73 334.39 305.7 334.05 296.52 356.66 296.89"/>
    <polygon class="cls-1" points="422.08 495.59 413.43 483.22 387.68 292.7 404.34 293.22 410.1 298.95 422.08 495.59"/>
    <path class="cls-1" d="M299.55,307.99l34.51,141.62c-5.72.56-9.19.73-13.46-3.73-4.87-5.09-20.04-64.95-24.76-78.61-3.02-8.77-21.99-46.99-18.92-51.28l22.63-7.99h0Z"/>
    <path class="cls-1" d="M368.5,633.4c-7.72,1.16-9.96-2.97-11.33-9.69-4.84-23.87-6.37-53.77-7.75-78.33,5.5-.9,5.35,6.75,6.44,10.69,6.69,24.08,9.85,52.39,12.64,77.33h0Z"/>
    <path class="cls-1" d="M425.99,533.87c7.6,1.56,6.51,7.86,7.58,13.44,3.33,17.41,6.4,39.25,8.22,56.94.28,2.73,5.39,13.98-2.44,13.77-9.27-.24-9.07-73.88-13.36-84.15Z"/>
    <path class="cls-2" d="M546.49,320.2c15.73-1.28,55.95,64.71,67.14,77.68,41.52,48.12,109.1,65.95,162.61,97.74,4.09,5.34,5.11,10.61,5.85,17.12,2.58,22.6,4.09,116.44-13.87,127.96-24.79,15.9-99.92-18.49-133.64-19.05-18.73-.31-33.8,9.73-53.15,7.71-29.17-3.05-47.22-28.75-51.11-56.27-6.33-44.76-6.46-172.47-.67-216.91.92-7.06,9.42-35.36,16.85-35.97h0ZM544.66,334.8c-1.62,15.81-6.75,31.84-7.83,47.7-3.07,44.96-2.94,112.24-.01,157.28,3.14,48.36,8.62,85.26,66.86,78,10.63-1.32,18.23-7.62,30.73-7.45,32.87.45,77.89,23.95,108.6,26.07,10.61.73,19.92-1.18,24.68-11.55,4.22-9.2,5.05-113.51.98-121.66-46.79-28.99-117.66-49.43-154.99-90.03-15.72-17.1-28.39-41.64-44.11-59.26-3.32-3.72-20.69-23.04-24.91-19.08v-.02Z"/>
    <path class="cls-2" d="M467.53,495.04l-26.27,4.4-15.32-218.24c13.36-.03,38.99-3.53,42.12,13.38l-.54,200.46h.01ZM456.08,293.15l-18.62-4.29,11.48,199.09h11.45l-4.31-194.8h0Z"/>
    <path class="cls-2" d="M483.38,491.78l-3.85-193.49c.83-5.62-2.25-6.16,5.82-5.75,11.17.56,30.12,9.36,32.41,21.26-4.51,50.53,6.28,111.82.3,160.94-2.22,18.25-19.19,16.3-34.67,17.04h-.01ZM506.33,480.29l2.37-162.94-21.48-13.17c8.46,58.96,5.11,116.8,3.83,176.11h15.28Z"/>
    <path class="cls-2" d="M495.27,610l-11.59-96.63c2.76-9.29,26.64-9.59,29.78-.03l7.76,91.05c-1.92,8.05-18.94,6.86-25.95,5.6h0ZM502.5,514.75c-9.59-12.54-7.83,24.77-7.6,28.66,1,16.59,3.37,47.76,15.24,59.38l-7.64-88.04Z"/>
    <path class="cls-2" d="M471.86,514.77l15.46,93.8-3.71,7.84c-3.03,1.74-6.38,2.03-9.79,2.04-6.25,0-10.63-.48-12.75-6.74-3.38-10-14.29-77.38-14.02-87.46.09-3.14,1.12-6.25,2.24-9.15l22.58-.33h0ZM464.21,526.2c-6.65.25-8.02-2.57-6.78,4.83,2.69,16.14,5.21,32.95,8.58,48.93,1.43,6.81,3.53,23.37,9.68,26.64l-11.47-80.4h0Z"/>
    <path class="cls-2" d="M747.53,667.89l-6.1,11.12c-38.03-15.03-94.41-12.03-130.02-30.06-5.51-2.79-10.89-3.53-9.33-11.69l145.45,30.63Z"/>
    <path class="cls-2" d="M697.78,687.05c1.26,3.94-2.36,10.58-5.66,11-4.24.54-71.01-21.6-81.58-25.25-11.02-3.8-33.11-10.62-41.97-15.4-7.51-4.06-5.01-3.94-4.76-12.49l133.96,42.14h.01Z"/>
    <path class="cls-2" d="M640.33,717.63c-39.01-13.9-76.18-32.98-110.93-55.49,5.89-8.14,6.88-5.17,14.12-2.75,26.22,8.78,58.89,37.74,88.01,46.03l8.81,12.21h-.01Z"/>
    <path class="cls-2" d="M593.89,718.14c2.21,3.11,2.79,13.14-5.09,10.88-6.3-1.81-79.69-42.84-86.03-48-4.47-3.63-9.28-6.19-7.89-13.13l99.01,50.25h0Z"/>
    <path class="cls-2" d="M548.44,732.94c-7.19,1.82-10.61-2.67-15.8-5.22-14.09-6.93-57.54-30.56-67.56-39.53-3.84-3.44-8.66-8.2-4.66-12.64,2.87-3.19,66.03,38.78,74.71,42.02l13.3,15.37h.01Z"/>
    <polygon class="cls-1" points="456.08 293.15 460.39 487.95 448.94 487.95 437.46 288.86 456.08 293.15"/>
    <path class="cls-1" d="M506.33,480.29h-15.28c1.28-59.31,4.63-117.15-3.83-176.11l21.48,13.17-2.37,162.94Z"/>
    <path class="cls-1" d="M502.5,514.75l7.64,88.04c-11.87-11.61-14.23-42.79-15.24-59.38-.24-3.89-2-41.2,7.6-28.66Z"/>
    <path class="cls-1" d="M464.21,526.2l11.47,80.4c-6.15-3.27-8.24-19.83-9.68-26.64-3.36-15.97-5.89-32.79-8.58-48.93-1.23-7.4.13-4.59,6.78-4.83h0Z"/>
  </g>
</svg>